<?xml version="1.0" encoding="UTF-8" standalone="no"?>
<svg
   xmlns:dc="http://purl.org/dc/elements/1.1/"
   xmlns:cc="http://creativecommons.org/ns#"
   xmlns:rdf="http://www.w3.org/1999/02/22-rdf-syntax-ns#"
   xmlns:svg="http://www.w3.org/2000/svg"
   xmlns="http://www.w3.org/2000/svg"
   xmlns:sodipodi="http://sodipodi.sourceforge.net/DTD/sodipodi-0.dtd"
   xmlns:inkscape="http://www.inkscape.org/namespaces/inkscape"
   version="1.1"
   width="108px"
   height="108px"
   viewBox="-0.015 -0.015 1.03 1.03"
   preserveAspectRatio="xMidYMid"
   id="svg18"
   sodipodi:docname="ic_app_color_fg_108dp-mdpi.svg"
   inkscape:version="0.92.3 (2405546, 2018-03-11)">
  <metadata
     id="metadata22">
    <rdf:RDF>
      <cc:Work
         rdf:about="">
        <dc:format>image/svg+xml</dc:format>
        <dc:type
           rdf:resource="http://purl.org/dc/dcmitype/StillImage" />
      </cc:Work>
    </rdf:RDF>
  </metadata>
  <sodipodi:namedview
     pagecolor="#ffffff"
     bordercolor="#666666"
     borderopacity="1"
     objecttolerance="10"
     gridtolerance="10"
     guidetolerance="10"
     inkscape:pageopacity="0"
     inkscape:pageshadow="2"
     inkscape:window-width="1920"
     inkscape:window-height="1019"
     id="namedview20"
     showgrid="false"
     inkscape:zoom="2.185"
     inkscape:cx="163.4"
     inkscape:cy="54"
     inkscape:window-x="4480"
     inkscape:window-y="360"
     inkscape:window-maximized="1"
     inkscape:current-layer="svg18" />
  <defs
     id="defs11">
    <filter
       id="symbol-shadow">
      <feGaussianBlur
         in="SourceAlpha"
         result="blur-out"
         stdDeviation="1.3"
         id="feGaussianBlur2" />
      <feMerge
         id="feMerge8">
        <feMergeNode
           id="feMergeNode4" />
        <feMergeNode
           in="SourceGraphic"
           id="feMergeNode6" />
      </feMerge>
    </filter>
    <clipPath
       clipPathUnits="userSpaceOnUse"
       id="clipPath118">
      <path
         d="m 504.2,414.2 h 42.1 v -42.1 h -42.1 z"
         id="path116"
         inkscape:connector-curvature="0" />
    </clipPath>
  </defs>
  <g
     id="g1319"
     transform="matrix(0.0083,0,0,0.0083,-3.38,-2.093)">
    <g
       id="g1223"
       transform="matrix(1.006,0,0,1.006,446.5,72.8)">
      <g
         transform="matrix(1.991,0,0,-1.991,-1025,1021)"
         id="g1209">
        <g
           clip-path="url(#clipPath118)"
           id="g1207">
          <g
             transform="translate(511.5,379.4)"
             id="g1205">
            <path
               d="m 0,0 c 7.611,-7.61 19.95,-7.609 27.56,0.001 7.61,7.611 7.61,19.949 0,27.559 C 19.95,35.17 7.613,35.17 0,27.56 -7.61,19.95 -7.612,7.612 0,0"
               style="fill:none;stroke:#283579;stroke-width:1.101;stroke-linecap:butt;stroke-linejoin:miter;stroke-miterlimit:10;stroke-dasharray:none;stroke-opacity:1"
               id="path1203"
               inkscape:connector-curvature="0" />
          </g>
        </g>
      </g>
      <path
         d="m 41.37,210.6 c -1.15,-1 -2.83,-1.5 -5.15,-1.5 -3.33,0 -6.39,1 -9.1,2.9 -2.64,1.9 -5.16,5.1 -7.48,9.4 -0.77,1.4 -1.22,2.9 -1.49,3.1 l -5.77,-0.1 c -1.73,0 -3.16,1.1 -3.16,3 0,1.6 1.07,2.5 2.53,2.9 v 0 h 0.1 c 0.27,0.1 0.55,0.1 0.84,0.1 h 4.07 L 10.99,253 c -1.27,4.9 -1.809,6.6 -2.054,7.2 -0.253,0.7 -0.57,1.3 -0.97,1.8 -0.08,-0.9 -0.465,-1.8 -1.148,-2.4 -0.745,-0.7 -1.774,-1.1 -3.058,-1.1 -1.449,0 -2.652,0.4 -3.5875,1.3 -0.9476,0.8 -1.4595,1.9 -1.4595,3.2 0,0.9 0.309,2.2 1.7323,3.4 1.0807,0.8 2.6097,1.3 4.6877,1.3 3.009,0 5.727,-0.8 8.087,-2.4 2.3,-1.6 4.33,-4 6.01,-7.2 1.65,-3.1 3.29,-7.9 5,-14.7 l 3.28,-13 h 4.53 c 1.91,0 3.45,-1 3.45,-2.9 0,-1.9 -1.37,-3 -3.28,-3 l -3.07,-0.1 c 1.11,-3.8 2.7,-7.6 4.33,-9.4 0.39,-0.5 0.92,-1 1.48,-1.4 -0.27,0.6 -0.41,1.2 -0.41,1.8 0,1.1 0.43,2 1.22,2.8 0.78,0.8 1.78,1.2 2.97,1.2 1.25,0 2.35,-0.5 3.2,-1.4 0.83,-0.9 1.26,-2 1.26,-3.5 0,-1.6 -0.62,-2.9 -1.81,-3.9"
         style="fill:#ffffff;fill-opacity:1;fill-rule:nonzero;stroke:none;stroke-width:1.9908"
         id="path1211"
         inkscape:connector-curvature="0" />
      <path
         d="m 10.04,234 c -4.56,0 -4.56,6 0,6 h 19.33 c 4.56,0 4.56,-6 0,-6 z"
         style="fill:#ffffff;fill-opacity:1;fill-rule:nonzero;stroke:none;stroke-width:1.9908"
         id="path1213"
         inkscape:connector-curvature="0" />
      <path
         d="m 18.19,272.6 c -3.23,-0.1 -6.48,-0.8 -9.632,-1.9 -1.529,-0.6 -4.218,-1.8 -5.433,-2.5 l -0.613,-0.4 1.714,0.1 c 5.874,0.3 10.404,-2.4 13.934,-8 2.09,-3.4 3.69,-7.8 5.87,-16.2 l 0.94,-3.6 2.63,-0.1 c 3.04,-0.1 3.51,-0.2 4.4,-1.2 1.19,-1.4 0.88,-3.2 -0.69,-4.2 -0.72,-0.5 -1.54,-0.7 -3.26,-0.7 -1.08,0 -1.45,0 -1.45,-0.2 0,-0.1 0.18,-0.8 0.39,-1.7 l 0.4,-1.6 h 2.91 c 3.15,-0.1 3.53,-0.2 4.34,-1 0.66,-0.7 0.81,-1.1 0.75,-2.2 0,-1 -0.1,-1.2 -0.48,-1.6 -0.77,-1 -1.27,-1.1 -3.66,-1.2 -1.61,0 -2.1,-0.1 -2.1,-0.2 0,-0.4 1.27,-3.9 1.9,-5.3 0.91,-2.1 1.69,-3.4 2.68,-4.4 0.48,-0.5 0.92,-0.9 0.98,-0.9 0.1,0 0,0.2 0,0.5 -0.2,0.7 -0.1,2.1 0.21,2.7 1,2.1 3.79,3 5.93,1.9 0.72,-0.4 1.65,-1.4 2.02,-2.2 0.46,-1.1 0.53,-2.8 0.15,-3.9 -0.16,-0.4 -0.27,-0.8 -0.25,-0.9 0.1,-0.1 3.47,3.4 4.3,4.4 5.58,6.9 8.4,15.7 7.76,24.2 -0.37,5 -1.37,8.7 -3.5,13.1 -1.9,3.8 -3.84,6.5 -6.93,9.5 -2.8,2.7 -5.38,4.5 -8.88,6.3 -5.39,2.6 -11.05,3.7 -17.3,3.4"
         style="fill:#c99904;fill-opacity:1;fill-rule:nonzero;stroke:none;stroke-width:1.9908"
         id="path1215"
         inkscape:connector-curvature="0" />
      <path
         d="m 20.51,203.7 c -8.93,0 -17.743,3.5 -24.325,10 -6.066,6 -9.565,13.8 -10.145,22.3 -0.72,10.7 3.64,21.1 11.756,28.2 0.653,0.6 1.2121,1.1 1.23,1.1 0.034,0 -0.039,-0.3 -0.151,-0.6 -0.249,-0.7 -0.273,-1.7 -0.09,-2.5 0.174,-0.9 0.6474,-1.8 1.3859,-2.4 0.9381,-0.9 2.1401,-1.3 3.5871,-1.3 1.284,0 2.316,0.4 3.058,1.1 0.681,0.6 1.067,1.5 1.151,2.4 0,0 0,0 0,0 0.398,-0.5 0.712,-1.1 0.963,-1.8 0.247,-0.6 0.787,-2.3 2.06,-7.2 l 3.24,-12.7 c 0,-0.1 -0.43,-0.2 -2.18,-0.2 -1.23,0 -2.536,0 -2.885,-0.1 -0.8,-0.2 -1.565,-0.7 -2.076,-1.4 -0.265,-0.3 -0.361,-0.5 -0.392,-1 C 6.307,236 7.423,234 10.05,234 h 5.78 l 0.1,-0.3 0.77,-3 c 0,-0.1 -0.75,-0.2 -2.52,-0.2 -0.55,0 -0.98,-0.1 -1.33,-0.1 h -0.16 c -0.14,0 -0.28,0 -0.41,0 -0.69,0 -0.91,-0.1 -1.33,-0.4 -0.84,-0.4 -1.261,-0.8 -1.557,-1.5 -0.325,-0.8 -0.273,-1.7 0.09,-2.4 0.279,-0.6 0.787,-1.1 1.417,-1.4 0.15,-0.1 0.28,-0.1 0.48,-0.1 0.31,-0.1 0.65,-0.2 1,-0.2 v 0 l 5.77,0.1 c 0.1,-0.1 0.13,-0.2 0.21,-0.3 l 0.13,-0.3 c 0.27,-0.6 0.64,-1.6 1.15,-2.5 2.32,-4.3 4.84,-7.5 7.48,-9.3 0.46,-0.4 0.95,-0.7 1.44,-1 1.53,-0.9 3.17,-1.5 4.92,-1.8 0.7,-0.2 1.97,-0.2 3.1,-0.2 0.86,0 1.65,0 2.03,0.1 0.23,0.1 0.44,0.1 0.55,0.1 0,0 0.1,0 0.1,0 0.1,-0.1 -2.66,-1.7 -4.13,-2.4 -4.67,-2.1 -9.65,-3.2 -14.58,-3.2"
         style="fill:#eac549;fill-opacity:1;fill-rule:nonzero;stroke:none;stroke-width:1.9908"
         id="path1217"
         inkscape:connector-curvature="0" />
      <path
         d="m 3.757,258.5 c -1.447,0 -2.652,0.4 -3.5875,1.3 -0.7405,0.7 -1.2145,1.5 -1.3855,2.4 0.06,-0.3 0.131,-0.5 0.2251,-0.7 0.7983,-1.7 2.6079,-2.7 4.5889,-2.7 0.314,0 0.635,0 0.955,0 1.649,0.3 2.863,1.3 3.219,2.7 0.06,0.3 0.128,0.4 0.192,0.5 -0.08,-0.9 -0.468,-1.8 -1.149,-2.4 -0.745,-0.7 -1.774,-1.1 -3.058,-1.1 M 14.23,240.3 10.99,253 c -1.27,4.9 -1.812,6.6 -2.057,7.2 -0.253,0.7 -0.567,1.3 -0.963,1.8 0.02,0 0.04,0.1 0.06,0.1 0,0 0.01,0 0.02,0 0.233,-0.2 0.795,-1.4 1.185,-2.7 0.456,-1.4 1.865,-6.8 3.625,-13.7 0.71,-2.8 1.32,-5.2 1.36,-5.3 0,0 0,-0.1 0,-0.1 m 2.46,-9.6 -0.77,3 0.1,-0.3 c 0.1,-0.3 0.28,-1 0.43,-1.6 0.15,-0.5 0.27,-1 0.27,-1.1 0,0 0,0 0,0 m -4.42,-0.3 c 0.13,0 0.27,0 0.4,0 h 0.17 c -0.22,0 -0.41,0 -0.57,0 m -1.4,-5.7 c -0.62,0.3 -1.12,0.8 -1.401,1.4 0.273,-0.5 0.711,-1 1.311,-1.3 0,0 0.1,-0.1 0.1,-0.1 m 7.49,-0.5 c -0.1,0.1 -0.15,0.2 -0.21,0.3 l -5.77,-0.1 v 0 c -0.35,0 -0.68,0.1 -0.99,0.2 0.28,-0.1 0.69,-0.1 1.47,-0.1 0.48,0 1.11,0 1.94,0 h 3.41 z m 10.19,-13.1 c -0.49,0.3 -0.97,0.6 -1.44,0.9 -2.64,1.9 -5.15,5.1 -7.48,9.4 -0.5,0.9 -0.87,1.9 -1.14,2.5 l 0.58,-1.3 c 1.47,-3.1 3.51,-6.1 5.54,-8.3 1.22,-1.3 2.54,-2.4 3.94,-3.2"
         style="fill:#ffffff;fill-opacity:1;fill-rule:nonzero;stroke:none;stroke-width:1.9908"
         id="path1219"
         inkscape:connector-curvature="0" />
      <path
         d="m 15.83,234 h -5.79 c -2.618,0 -3.733,2 -3.344,3.6 -0.01,-0.1 -0.01,-0.3 -0.01,-0.5 0,-0.9 0.05,-1.1 0.407,-1.6 0.511,-0.6 1.276,-1.1 2.08,-1.3 0.346,-0.1 1.987,-0.2 3.647,-0.2 z"
         style="fill:#ffffff;fill-opacity:1;fill-rule:nonzero;stroke:none;stroke-width:1.9908"
         id="path1221"
         inkscape:connector-curvature="0" />
    </g>
    <path
       id="path1225"
       d="m 488.1,284.7 c -1.2,-1 -2.9,-1.4 -5.2,-1.4 -3.3,0 -6.4,1 -9.2,2.9 -2.7,1.9 -5.2,5 -7.4,9.4 -0.9,1.4 -1.3,2.9 -1.5,3.1 H 459 c -1.7,0 -3.2,1 -3.2,2.9 0,1.7 1.1,2.5 2.5,2.9 v 0 h 0.3 c 0.2,0 0.6,0.2 0.8,0.2 h 4.1 l -0.8,3.6 h -5.8 c -1.9,0 -3.6,1.2 -3.6,2.9 0,1.6 1.5,2.9 3.6,2.9 v 0 h 4.4 l -3.4,13.1 c -1.2,5 -1.8,6.7 -2.1,7.3 -0.2,0.6 -0.6,1.2 -1,1.9 0,-1.1 -0.4,-1.9 -1.2,-2.5 -0.9,-0.7 -1.9,-1.1 -3.2,-1.1 -1.4,0 -2.7,0.4 -3.5,1.3 -1,0.8 -1.5,2.1 -1.5,3.1 0,0.8 0.2,2.3 1.7,3.5 1,0.9 2.7,1.3 4.8,1.3 3.1,0 5.8,-0.8 8.1,-2.5 2.3,-1.7 4.4,-4 6,-7.3 1.7,-3.1 3.4,-8.1 5,-15 l 0.9,-3.5 h 4.3 c 1.9,0 3.6,-1.3 3.6,-2.9 0,-1.7 -1.5,-3 -3.6,-3 v 0 h -2.7 l 0.9,-3.5 h 4.6 c 1.8,0 3.5,-1 3.5,-2.9 0,-1.9 -1.5,-2.9 -3.3,-3.1 H 476 c 1.1,-3.8 2.7,-7.7 4.4,-9.6 0.4,-0.4 0.8,-1 1.5,-1.5 -0.2,0.7 -0.4,1.3 -0.4,1.9 0,1.1 0.4,2.1 1.2,2.9 0.8,0.9 1.9,1.3 2.9,1.3 1.3,0 2.3,-0.4 3.3,-1.5 0.9,-0.8 1.3,-2.1 1.3,-3.5 -0.2,-1.1 -0.8,-2.5 -2.1,-3.6"
       inkscape:connector-curvature="0"
       style="fill:#ffffff;stroke-width:2.0816" />
  </g>
</svg>
