<?xml version="1.0" encoding="UTF-8" standalone="no"?>
<svg
   xmlns:dc="http://purl.org/dc/elements/1.1/"
   xmlns:cc="http://creativecommons.org/ns#"
   xmlns:rdf="http://www.w3.org/1999/02/22-rdf-syntax-ns#"
   xmlns:svg="http://www.w3.org/2000/svg"
   xmlns="http://www.w3.org/2000/svg"
   xmlns:sodipodi="http://sodipodi.sourceforge.net/DTD/sodipodi-0.dtd"
   xmlns:inkscape="http://www.inkscape.org/namespaces/inkscape"
   version="1.1"
   width="48px"
   height="48px"
   viewBox="-0.015 -0.015 1.03 1.03"
   preserveAspectRatio="xMidYMid"
   id="svg4514"
   sodipodi:docname="ic_app_color_48dp-mdpi.svg"
   inkscape:version="0.92.1 r15371">
  <metadata
     id="metadata4518">
    <rdf:RDF>
      <cc:Work
         rdf:about="">
        <dc:format>image/svg+xml</dc:format>
        <dc:type
           rdf:resource="http://purl.org/dc/dcmitype/StillImage" />
        <dc:title></dc:title>
      </cc:Work>
    </rdf:RDF>
  </metadata>
  <sodipodi:namedview
     pagecolor="#ffffff"
     bordercolor="#666666"
     borderopacity="1"
     objecttolerance="10"
     gridtolerance="10"
     guidetolerance="10"
     inkscape:pageopacity="0"
     inkscape:pageshadow="2"
     inkscape:window-width="1920"
     inkscape:window-height="1016"
     id="namedview4516"
     showgrid="false"
     inkscape:zoom="12.123935"
     inkscape:cx="16.062135"
     inkscape:cy="30.06903"
     inkscape:window-x="0"
     inkscape:window-y="27"
     inkscape:window-maximized="1"
     inkscape:current-layer="svg4514" />
  <defs
     id="defs4508">
    <filter
       id="coin-shadow">
      <feGaussianBlur
         in="SourceAlpha"
         result="blur-out"
         stdDeviation="0.5"
         id="feGaussianBlur4485" />
      <feMerge
         id="feMerge4491">
        <feMergeNode
           id="feMergeNode4487" />
        <feMergeNode
           in="SourceGraphic"
           id="feMergeNode4489" />
      </feMerge>
    </filter>
    <filter
       id="symbol-shadow">
      <feGaussianBlur
         in="SourceAlpha"
         result="blur-out"
         stdDeviation="1.3"
         id="feGaussianBlur4494" />
      <feMerge
         id="feMerge4500">
        <feMergeNode
           id="feMergeNode4496" />
        <feMergeNode
           in="SourceGraphic"
           id="feMergeNode4498" />
      </feMerge>
    </filter>
    <linearGradient
       id="coin-gradient"
       x1="0%"
       y1="0%"
       x2="0%"
       y2="100%">
      <stop
         offset="0%"
         style="stop-color:#bbbbbb"
         id="stop4503" />
      <stop
         offset="100%"
         style="stop-color:#999999"
         id="stop4505" />
    </linearGradient>
    <clipPath
       clipPathUnits="userSpaceOnUse"
       id="clipPath118">
      <path
         d="M 504.232,414.19 H 546.31 V 372.112 H 504.232 Z"
         id="path116"
         inkscape:connector-curvature="0" />
    </clipPath>
  </defs>
  <g
     id="g1329"
     transform="matrix(0.02145833,0,0,0.02145833,-17.352573,-7.9111161)">
    <path
       d="m 580.27631,503.98988 c -1.6312,1.16514 -3.02936,2.56331 -3.96148,4.42753 h -0.46605 l -1.16514,-5.59267 h -6.52478 v 31.92482 h 8.62203 v -16.31195 c 0,-2.56331 0.69908,-4.66056 2.33028,-6.05873 1.63119,-1.39816 3.72845,-2.09725 6.52478,-2.09725 0.93211,0 1.86422,0 2.56331,0.23303 l 0.69908,-8.15598 c -0.69908,-0.23302 -1.86422,-0.23302 -3.02936,-0.23302 -2.09725,0.23302 -3.96148,0.69908 -5.59267,1.86422 m -20.27343,-1.16514 h -8.62203 v 31.92482 h 8.62203 z m -25.16701,19.80737 c 0,1.86422 -0.69908,3.49542 -1.86422,4.66056 -1.16514,1.16514 -2.79633,1.63119 -4.89358,1.63119 -2.79634,0 -4.19451,-1.16514 -4.19451,-3.72844 0,-1.6312 0.69909,-3.02937 1.86423,-3.72845 1.16514,-0.93211 3.02936,-1.39817 5.59267,-1.39817 h 3.49541 z m 8.62204,12.35048 v -21.43857 c 0,-3.72844 -1.16514,-6.75781 -3.49542,-8.62203 -2.33028,-1.86422 -5.59267,-2.79633 -9.78717,-2.79633 -4.42753,0 -8.62203,0.93211 -12.35048,2.79633 l 2.79633,5.8257 c 3.49542,-1.6312 6.52478,-2.33028 9.08809,-2.33028 3.26239,0 4.89359,1.63119 4.89359,4.89358 v 1.39817 l -5.35964,0.46606 c -4.89359,0.23303 -8.38901,1.16514 -10.71929,2.5633 -2.33028,1.6312 -3.49541,4.19451 -3.49541,7.4569 0,3.26239 0.93211,5.82569 2.5633,7.45689 1.86422,1.86422 4.1945,2.5633 7.22387,2.5633 2.5633,0 4.42753,-0.46605 6.05872,-1.16514 1.6312,-0.69908 3.02936,-2.09725 4.42753,-3.96147 h 0.23303 l 1.63119,4.42753 h 6.29176 z m -48.00375,-16.54498 h 14.2147 v -7.22387 h -14.2147 v -10.71928 h 15.14682 V 493.2706 H 486.5991 v 41.94501 h 8.62204 v -16.778 z"
       id="path2"
       inkscape:connector-curvature="0"
       style="fill:#283583;stroke-width:2.33027864" />
    <path
       d="m 671.15718,502.82474 h -8.62203 v 31.92482 h 8.62203 z m -110.22218,-8.389 c 0,-3.02937 -2.33028,-5.35964 -5.35965,-5.35964 -3.02936,0 -5.35964,2.33027 -5.35964,5.35964 0,3.02936 2.33028,5.35964 5.35964,5.35964 3.02937,0 5.35965,-2.56331 5.35965,-5.35964 m 61.51935,8.15597 2.79634,-7.22386 c -4.1945,-1.86422 -8.15598,-3.02936 -12.35048,-3.02936 -3.96147,0 -7.45689,0.93211 -10.48625,2.5633 -3.02937,1.6312 -5.12662,4.1945 -6.75781,7.45689 -1.6312,3.26239 -2.33028,6.99084 -2.33028,11.41837 0,6.99084 1.63119,12.11745 4.89358,15.8459 3.26239,3.72844 7.92295,5.59266 13.98168,5.59266 4.1945,0 8.15597,-0.69908 11.41836,-2.09725 v -7.45689 c -4.1945,1.39817 -7.68992,2.09725 -10.71928,2.09725 -6.99084,0 -10.48625,-4.66056 -10.48625,-13.98167 0,-4.42753 0.93211,-7.92295 2.79633,-10.48625 1.86422,-2.56331 4.42753,-3.72845 7.68992,-3.72845 1.6312,0 3.02936,0.23303 4.66056,0.93211 1.86422,0.69909 3.26239,1.39817 4.89358,2.09725 m 26.09912,16.31195 c 0,3.26239 -0.46605,5.59267 -1.63119,7.22387 -1.16514,1.63119 -2.79633,2.33028 -5.12661,2.33028 -2.33028,0 -3.96148,-0.69909 -5.12662,-2.33028 -0.93211,-1.6312 -1.63119,-3.96148 -1.63119,-7.22387 0,-3.26239 0.46605,-5.59267 1.63119,-7.22386 0.93211,-1.6312 2.79634,-2.33028 5.12662,-2.33028 2.33028,0 3.96147,0.69908 5.12661,2.33028 1.16514,1.63119 1.63119,3.96147 1.63119,7.22386 m 4.89359,12.11745 c 2.79633,-3.02936 4.1945,-6.99083 4.1945,-12.11745 0,-3.26239 -0.69908,-6.29175 -1.86422,-8.85506 -1.16514,-2.5633 -3.02936,-4.42753 -5.35964,-5.82569 -2.33028,-1.39817 -5.12662,-2.09725 -8.15598,-2.09725 -4.89358,0 -8.85506,1.39816 -11.41836,4.42753 -2.79634,2.79633 -4.19451,6.99083 -4.19451,12.11745 0,3.26239 0.69909,6.29175 1.86423,8.85505 1.16514,2.56331 3.02936,4.42753 5.35964,5.8257 2.33028,1.39817 5.12661,2.09725 8.15597,2.09725 4.89359,0 8.62204,-1.39817 11.41837,-4.42753 m 18.64223,-36.58537 c 0,-3.02937 -2.33028,-5.35964 -5.35964,-5.35964 -3.02936,0 -5.35964,2.33027 -5.35964,5.35964 0,3.02936 2.33028,5.35964 5.35964,5.35964 3.02936,0 5.35964,-2.56331 5.35964,-5.35964 m 36.58537,40.54685 v -20.97251 c 0,-3.72845 -0.93211,-6.75781 -2.79633,-8.62203 -1.86422,-2.09725 -4.66056,-3.02937 -8.389,-3.02937 -2.09725,0 -4.1945,0.46606 -5.8257,1.16514 -1.63119,0.69909 -3.02936,1.86423 -3.96147,3.49542 h -0.46606 l -1.16514,-4.1945 h -6.75781 v 31.92482 h 8.62203 v -15.14681 c 0,-3.72845 0.46606,-6.52478 1.6312,-8.15598 1.16514,-1.63119 2.79633,-2.56331 5.35964,-2.56331 1.86422,0 3.02936,0.46606 3.96147,1.6312 0.93212,1.16514 1.16514,2.79633 1.16514,5.12661 v 18.64223 h 8.62203 z"
       id="path12"
       inkscape:connector-curvature="0"
       style="fill:#c99705;stroke-width:2.33027864" />
  </g>
  <g
     id="g1319"
     transform="matrix(0.0128015,0,0,0.0128015,-5.4789606,-3.4992286)">
    <g
       id="g1223"
       transform="matrix(1.0059288,0,0,1.0059288,446.5011,72.800008)">
      <g
         transform="matrix(1.9907592,0,0,-1.9907592,-1025.2586,1020.8603)"
         id="g1209">
        <g
           clip-path="url(#clipPath118)"
           id="g1207">
          <g
             transform="translate(511.4903,379.3701)"
             id="g1205">
            <path
               d="m 0,0 c 7.611,-7.61 19.951,-7.609 27.562,0.001 7.61,7.611 7.61,19.95 0,27.56 C 19.951,35.172 7.613,35.172 0,27.561 -7.61,19.951 -7.612,7.612 0,0"
               style="fill:none;stroke:#283579;stroke-width:1.10099995;stroke-linecap:butt;stroke-linejoin:miter;stroke-miterlimit:10;stroke-dasharray:none;stroke-opacity:1"
               id="path1203"
               inkscape:connector-curvature="0" />
          </g>
        </g>
      </g>
      <path
         d="m 41.372854,210.55741 c -1.150684,-0.9854 -2.832835,-1.46517 -5.148085,-1.46517 -3.330555,0 -6.398312,0.99736 -9.109708,2.95427 -2.639784,1.89518 -5.156098,5.03263 -7.479304,9.33464 -0.764471,1.40751 -1.214338,2.89457 -1.487126,3.09761 l -5.76922,-0.0508 c -1.731923,-0.0113 -3.1592882,1.02721 -3.1592882,2.94631 0,1.57866 1.0690282,2.50633 2.5262452,2.91444 l -0.0056,0.0282 h 0.101576 c 0.262968,0.0717 0.549637,0.11343 0.834162,0.11343 h 4.07505 l -5.757257,22.54141 c -1.2740983,4.9012 -1.8135784,6.65507 -2.0584324,7.25431 -0.2528108,0.6629 -0.5693885,1.24419 -0.9695405,1.79563 -0.079568,-0.95752 -0.4655555,-1.79563 -1.1486525,-2.44662 -0.7445502,-0.71266 -1.7737383,-1.08099 -3.057825,-1.08099 -1.4492603,0 -2.6516914,0.42831 -3.58731693,1.27608 -0.94758888,0.86598 -1.45924847,1.9669 -1.45924847,3.18722 0,0.91971 0.30867738,2.24555 1.73197935,3.41616 1.08099175,0.87592 2.60987605,1.29396 4.68822875,1.29396 3.0080529,0 5.7294367,-0.80623 8.0824957,-2.38494 2.305318,-1.56071 4.331867,-3.96558 6.014074,-7.13288 1.648349,-3.1195 3.290716,-7.94909 5.00475,-14.77741 l 3.270852,-12.94193 h 4.534962 c 1.90511,0 3.453914,-1.05108 3.453914,-2.96624 0,-1.90714 -1.375561,-2.97814 -3.280727,-2.98813 l -3.069789,-0.0282 c 1.110844,-3.80237 2.693507,-7.60272 4.323967,-9.47803 0.396146,-0.48192 0.925694,-0.99934 1.477137,-1.35767 -0.264661,0.60319 -0.407996,1.19244 -0.407996,1.77373 0,1.09093 0.428311,2.05844 1.224327,2.82291 0.782359,0.76447 1.781695,1.15068 2.964206,1.15068 1.254178,0 2.35509,-0.46555 3.20116,-1.35372 0.834106,-0.88789 1.262135,-2.0485 1.262135,-3.47587 0.01129,-1.59857 -0.621136,-2.97622 -1.813579,-3.97556"
         style="fill:#ffffff;fill-opacity:1;fill-rule:nonzero;stroke:none;stroke-width:1.99075925"
         id="path1211"
         inkscape:connector-curvature="0" />
      <path
         d="m 10.044466,234.00978 c -4.5648137,0 -4.5648137,5.96036 0,5.96036 H 29.36677 c 4.564814,0 4.564814,-5.96036 0,-5.96036 z"
         style="fill:#ffffff;fill-opacity:1;fill-rule:nonzero;stroke:none;stroke-width:1.99075925"
         id="path1213"
         inkscape:connector-curvature="0" />
      <path
         d="m 18.187286,272.62194 c -3.229036,-0.16139 -6.479912,-0.82417 -9.6293242,-1.94698 -1.5288843,-0.54964 -4.2183844,-1.76979 -5.432779,-2.4745 l -0.6131225,-0.35833 1.7140344,0.0739 c 5.8707393,0.24491 10.4057023,-2.37495 13.9333153,-8.0128 2.086309,-3.36238 3.688892,-7.76394 5.868764,-16.16296 l 0.937657,-3.62518 2.629796,-0.0835 c 3.045862,-0.0914 3.513675,-0.22516 4.40156,-1.23228 1.192443,-1.35576 0.88591,-3.20116 -0.684847,-4.23836 -0.722598,-0.46951 -1.546772,-0.63502 -3.260863,-0.63502 -1.080935,-0.006 -1.455242,-0.0508 -1.455242,-0.1834 0,-0.10158 0.183401,-0.88591 0.396145,-1.74191 l 0.400096,-1.56873 2.902527,-0.0717 c 3.159344,-0.0818 3.535626,-0.16308 4.341855,-0.96948 0.662951,-0.66092 0.814243,-1.11084 0.754539,-2.23963 -0.0395,-0.90775 -0.101576,-1.11282 -0.479663,-1.5707 -0.776434,-0.96751 -1.274099,-1.1188 -3.659041,-1.17252 -1.608508,-0.0395 -2.100248,-0.0914 -2.100248,-0.23476 0,-0.34648 1.266142,-3.87003 1.897209,-5.30936 0.907749,-2.03654 1.690164,-3.32057 2.679569,-4.38164 0.479663,-0.50957 0.917736,-0.91576 0.97744,-0.91576 0.06377,0 0.05079,0.23475 -0.02821,0.51973 -0.195251,0.71069 -0.08352,2.13811 0.213309,2.75123 0.997361,2.06842 3.792387,2.92442 5.930444,1.84546 0.722655,-0.36849 1.652355,-1.37765 2.016673,-2.20182 0.459913,-1.03918 0.533273,-2.73131 0.155186,-3.84413 -0.163086,-0.46612 -0.274819,-0.87593 -0.256761,-0.89387 0.09367,-0.0937 3.475865,3.35245 4.302015,4.37966 5.58407,6.92188 8.399016,15.69515 7.763942,24.18575 -0.374137,4.98286 -1.373642,8.69167 -3.503742,13.04346 -1.895178,3.85215 -3.84216,6.53369 -6.931812,9.5497 -2.801007,2.73132 -5.379056,4.54489 -8.874786,6.26688 -5.39102,2.64972 -11.056689,3.78048 -17.305686,3.45398"
         style="fill:#c99904;fill-opacity:1;fill-rule:nonzero;stroke:none;stroke-width:1.99075925"
         id="path1215"
         inkscape:connector-curvature="0" />
      <path
         d="m 20.514274,203.70483 c -8.934546,0 -17.7475971,3.45792 -24.329085,10.01351 -6.0658216,6.02406 -9.569564,13.73823 -10.140928,22.28656 -0.722655,10.66049 3.637146,21.10801 11.751468,28.21103 0.6529628,0.57932 1.21236299,1.04916 1.23030804,1.04916 0.0338586,0 -0.0395016,-0.26691 -0.15123504,-0.59128 -0.2488606,-0.70076 -0.2725616,-1.69411 -0.091418,-2.49442 0.173243,-0.90978 0.64698105,-1.72995 1.38554962,-2.40683 0.93765698,-0.84805 2.14008818,-1.27608 3.58737328,-1.27608 1.2840304,0 2.31525,0.3685 3.0577687,1.08099 0.6808397,0.64902 1.0670532,1.48312 1.1506839,2.43472 0.00198,0.002 0.00198,0.004 0.00395,0.006 0.3984027,-0.54738 0.7127232,-1.12879 0.9635589,-1.78971 0.2466033,-0.59924 0.7863655,-2.35306 2.0604076,-7.25431 l 3.236994,-12.67716 c -0.0395,-0.13939 -0.430004,-0.15519 -2.175922,-0.16309 -1.234259,0 -2.5382091,-0.0598 -2.8865575,-0.14333 -0.8022791,-0.1834 -1.5667495,-0.68084 -2.0783527,-1.3557 -0.2646613,-0.34818 -0.3605939,-0.53948 -0.3921953,-0.98546 -0.389938,-1.67419 0.7266052,-3.63906 3.3484445,-3.63906 h 5.787166 l 0.08577,-0.32278 0.770395,-3.01206 c -0.0395,-0.11569 -0.7485,-0.17325 -2.516313,-0.21275 -0.549638,-0.0113 -0.981448,-0.0169 -1.329852,-0.0282 h -0.167036 c -0.135434,0 -0.270869,-0.0113 -0.404046,-0.0282 -0.690828,-0.0451 -0.907805,-0.13713 -1.327877,-0.36059 -0.84607,-0.44807 -1.2641103,-0.86599 -1.5607115,-1.5707 -0.3244781,-0.78834 -0.2725616,-1.6404 0.085775,-2.36305 0.278769,-0.64297 0.7803845,-1.11084 1.4074455,-1.38753 0.151235,-0.0779 0.286669,-0.13148 0.48587,-0.16929 0.312628,-0.0835 0.646981,-0.12527 0.993355,-0.12527 h 0.02821 l 5.767245,0.0508 c 0.06151,-0.0451 0.133178,-0.15518 0.212745,-0.31432 l 0.129227,-0.27651 c 0.270869,-0.60516 0.639024,-1.57267 1.144646,-2.50435 2.325238,-4.30207 4.83952,-7.4415 7.48128,-9.3347 0.47007,-0.34028 0.94962,-0.64895 1.439328,-0.93167 1.532891,-0.89387 3.173283,-1.50699 4.921176,-1.84146 0.702735,-0.13318 1.970852,-0.2071 3.101559,-0.2071 0.864015,0 1.648349,0.0451 2.032587,0.13543 0.226853,0.0508 0.441855,0.0835 0.545688,0.0835 0.0395,0 0.06151,-0.004 0.06772,-0.0113 0.09142,-0.0914 -2.651692,-1.6404 -4.126854,-2.33517 -4.662383,-2.1779 -9.641288,-3.23497 -14.582327,-3.23497"
         style="fill:#eac549;fill-opacity:1;fill-rule:nonzero;stroke:none;stroke-width:1.99075925"
         id="path1217"
         inkscape:connector-curvature="0" />
      <path
         d="m 3.7568711,258.4971 c -1.4472851,0 -2.6516913,0.42831 -3.58737327,1.27608 -0.74054365,0.67683 -1.21433813,1.49705 -1.38554963,2.40486 0.056431,-0.24661 0.1314841,-0.47571 0.22515955,-0.67288 0.79827253,-1.70608 2.60784455,-2.75124 4.58868445,-2.75124 0.3143206,0 0.6350178,0.0282 0.9555457,0.0796 1.6483487,0.28441 2.8627432,1.29396 3.2190484,2.69147 0.056431,0.22686 0.1275339,0.40631 0.1913009,0.48757 -0.081825,-0.95363 -0.4678127,-1.78576 -1.1486524,-2.43472 -0.7445502,-0.71272 -1.7737947,-1.08099 -3.0578251,-1.08099 m 10.4733623,-18.1995 -3.238968,12.67711 c -1.2720671,4.90125 -1.8135787,6.65513 -2.0584327,7.25437 -0.2528107,0.66092 -0.5673569,1.24024 -0.9635024,1.78965 0.022572,0.0282 0.039502,0.0395 0.059817,0.0395 0.00564,0 0.011286,-0.002 0.016929,-0.004 0.2330599,-0.14108 0.7942659,-1.38555 1.1844861,-2.60988 0.4559622,-1.46715 1.871308,-6.79643 3.625182,-13.69642 0.714642,-2.81291 1.325846,-5.22573 1.367661,-5.35913 0.01129,-0.0339 0.01129,-0.0655 0.0056,-0.0914 m 2.45661,-9.62334 -0.768421,3.012 0.06772,-0.24661 c 0.09368,-0.33632 0.28667,-1.05113 0.430004,-1.60258 0.151235,-0.53948 0.272562,-1.05909 0.272562,-1.15068 0,-0.004 0,-0.006 -0.002,-0.0113 m -4.417473,-0.26861 c 0.133177,0.0169 0.268612,0.0282 0.404046,0.0282 h 0.169293 c -0.222903,-0.006 -0.411946,-0.0169 -0.573339,-0.0282 m -1.393563,-5.68158 c -0.627061,0.27651 -1.1287323,0.74252 -1.4094199,1.38752 0.2725616,-0.54738 0.7186489,-1.01925 1.3119079,-1.33781 0.03386,-0.0169 0.06546,-0.0339 0.09763,-0.0508 m 7.485286,-0.56148 c -0.08183,0.15913 -0.151235,0.27087 -0.213309,0.31657 l -5.76922,-0.0508 h -0.02822 c -0.346486,0 -0.678808,0.0395 -0.991379,0.12527 0.282719,-0.0564 0.694778,-0.0717 1.473187,-0.0717 0.483613,0 1.112819,0.006 1.938968,0.0169 l 3.414187,0.0282 z m 10.19465,-13.04543 c -0.491513,0.28046 -0.971459,0.59122 -1.441303,0.9297 -2.639728,1.89517 -5.154066,5.03262 -7.479248,9.33464 -0.507879,0.93167 -0.873947,1.89918 -1.144702,2.50638 l 0.58327,-1.24221 c 1.46918,-3.11753 3.505718,-6.18535 5.534298,-8.3453 1.220377,-1.29994 2.538266,-2.36101 3.947685,-3.18321"
         style="fill:#ffffff;fill-opacity:1;fill-rule:nonzero;stroke:none;stroke-width:1.99075925"
         id="path1219"
         inkscape:connector-curvature="0" />
      <path
         d="m 15.831237,234.00978 h -5.787109 c -2.6218395,0 -3.7366898,1.96487 -3.3485011,3.63913 -0.011286,-0.15124 -0.011286,-0.33464 -0.011286,-0.56319 0,-0.89781 0.050788,-1.06902 0.406303,-1.53887 0.5118289,-0.68084 1.2760735,-1.17055 2.0803278,-1.35366 0.3464861,-0.0818 1.9868213,-0.1535 3.6490523,-0.1535 h 3.006078 z"
         style="fill:#ffffff;fill-opacity:1;fill-rule:nonzero;stroke:none;stroke-width:1.99075925"
         id="path1221"
         inkscape:connector-curvature="0" />
    </g>
    <path
       id="path1225"
       d="m 488.11141,284.74045 c -1.24895,-1.0408 -2.91422,-1.45712 -5.20396,-1.45712 -3.33054,0 -6.45292,1.04079 -9.15898,2.91422 -2.70607,1.87343 -5.20397,4.99581 -7.49371,9.36715 -0.83264,1.4571 -1.24896,2.91422 -1.45711,3.12237 h -5.82845 c -1.66527,0 -3.12238,1.04079 -3.12238,2.91422 0,1.66528 1.0408,2.4979 2.49791,2.91422 v 0 h 0.20816 c 0.20816,0 0.62447,0.20817 0.83263,0.20817 h 4.16317 l -0.83263,3.5387 h -5.82844 c -1.87343,0 -3.5387,1.24894 -3.5387,2.91422 0,1.66527 1.45711,2.91422 3.5387,2.91422 v 0 h 4.37133 l -3.33054,13.11399 c -1.24895,4.99581 -1.87343,6.66108 -2.08159,7.28555 -0.20815,0.62448 -0.62447,1.24896 -1.04079,1.87342 0,-1.04079 -0.41632,-1.87342 -1.24895,-2.4979 -0.83263,-0.62448 -1.87343,-1.0408 -3.12238,-1.0408 -1.45711,0 -2.70606,0.41632 -3.5387,1.24896 -1.04079,0.83263 -1.45711,2.08158 -1.45711,3.12239 0,0.83263 0.20816,2.28974 1.66527,3.53868 1.0408,0.83265 2.70606,1.24895 4.78765,1.24895 3.12238,0 5.82844,-0.83263 8.11819,-2.4979 2.28974,-1.66527 4.37133,-3.95501 6.0366,-7.28555 1.66527,-3.12238 3.33054,-8.11819 4.9958,-14.98742 l 0.83264,-3.5387 h 4.37133 c 1.87343,0 3.5387,-1.24895 3.5387,-2.91422 0,-1.66527 -1.45711,-2.91422 -3.5387,-2.91422 v 0 h -2.70606 l 0.83263,-3.5387 h 4.57949 c 1.87343,0 3.5387,-1.04078 3.5387,-2.91422 0,-1.87343 -1.45711,-2.91422 -3.33054,-3.12238 h -3.12238 c 1.04079,-3.74684 2.70606,-7.70187 4.37133,-9.5753 0.41632,-0.41631 0.83264,-1.04078 1.45711,-1.45711 -0.20816,0.62448 -0.41631,1.24896 -0.41631,1.87343 0,1.0408 0.41631,2.08159 1.24895,2.91422 0.83263,0.83264 1.87343,1.24895 2.91422,1.24895 1.24895,0 2.28974,-0.41631 3.33054,-1.45711 0.83263,-0.83263 1.24895,-2.08157 1.24895,-3.53869 -0.20816,-1.0408 -0.83264,-2.4979 -2.08159,-3.53869"
       inkscape:connector-curvature="0"
       style="fill:#ffffff;stroke-width:2.08158636" />
  </g>
</svg>
